{"title":"Svecenikova.Djeca.2013.DVDRip.DrSi","uid":9173191,"size":1472841948,"categoryP":"video","categoryS":"movies","magnet":"?xt=urn:btih:c021c27553e2cefee2d47612acbe83ccb2d25ab2&amp;dn=Svecenikova.Djeca.2013.DVDRip.DrSi&amp;tr=udp%3A%2F%2Ftracker.openbittorrent.com%3A80&amp;tr=udp%3A%2F%2Fopen.demonii.com%3A1337&amp;tr=udp%3A%2F%2Ftracker.coppersurfer.tk%3A6969&amp;tr=udp%3A%2F%2Fexodus.desync.com%3A6969","seeders":13,"leechers":2,"uploader":"undead666","files":-1,"time":1384103835,"description":"Don Fabijan is a young priest who comes to serve on an unnamed small island in the Adriatic. In order to help increase birth rate on the island, he decides to pierce condoms before they are sold. He therefore teams up with the newsagent Petar and the pharmacist Marin. After they abolish all forms of birth control on the entire island, the consequences become more and more complicated.\n- Written by lletaif\n\nDon Fabijan is a young priest who comes to serve on an unnamed small island in the Adriatic. In order to help increase birth rate on the island, he decides to pierce condoms before they are sold. He therefore teams up with the newsagent Petar and the pharmacist Marin. After they abolish all forms of birth control on the entire island, the consequences become more and more complicated.\n- Written by Anonymous\n\nLanguage: Croatian\nSubititles: English, Spanish, Italian, Slovenian\nIMDB: http://www.imdb.com/title/tt2395421\n\n\n      Format : AVI\n      Format/Info : Audio Video Interleave\n      File size : 1.37 GiB\n      Duration : 1h 32mn\n      Overall bit rate : 2 125 Kbps\n      Writing application : VirtualDubMod 1.5.10.2 (build 2542/release)\n      Writing library : VirtualDubMod build 2542/release\n   Video #0\n      ID : 0\n      Format : MPEG-4 Visual\n      Format profile : AdvancedSimple@L5\n      Format settings, BVOP : Yes\n      Format settings, QPel : No\n      Format settings, GMC : No warppoints\n      Format settings, Matrix : Default (H.263)\n      Muxing mode : Packed bitstream\n      Codec ID : XVID\n      Codec ID/Hint : XviD\n      Duration : 1h 32mn\n      Bit rate : 1 668 Kbps\n      Width : 720 pixels\n      Height : 304 pixels\n      Display aspect ratio : 2.35:1\n      Frame rate : 25.000 fps\n      Resolution : 24 bits\n      Colorimetry : 4:2:0\n      Scan type : Progressive\n      Bits/(Pixel*Frame) : 0.305\n      Stream size : 1.08 GiB (78%)\n      Writing library : XviD 1.2.1 (UTC 2008-12-04)\n   Audio #1\n      ID : 1\n      Format : AC-3\n      Format/Info : Audio Coding 3\n      Codec ID : 2000\n      Duration : 1h 32mn\n      Bit rate mode : Constant\n      Bit rate : 448 Kbps\n      Channel(s) : 6 channels\n      Channel positions : Front: L C R, Surround: L R, LFE\n      Sampling rate : 48.0 KHz\n      Stream size : 296 MiB (21%)\n      Alignment : Split accross interleaves\n      Interleave, duration : 40 ms (1.00 video frame)\n      Interleave, preload duration : 500 ms","torrent":{"xt":"urn:btih:c021c27553e2cefee2d47612acbe83ccb2d25ab2","amp;dn":"Svecenikova.Djeca.2013.DVDRip.DrSi","amp;tr":["udp%3A%2F%2Ftracker.openbittorrent.com%3A80","udp%3A%2F%2Fopen.demonii.com%3A1337","udp%3A%2F%2Ftracker.coppersurfer.tk%3A6969","udp%3A%2F%2Fexodus.desync.com%3A6969"],"infoHash":"c021c27553e2cefee2d47612acbe83ccb2d25ab2","infoHashBuffer":{"type":"Buffer","data":[192,33,194,117,83,226,206,254,226,212,118,18,172,190,131,204,178,210,90,178]},"announce":[],"urlList":[]}}